<svg width="48" height="48" viewBox="0 0 48 48" fill="none" xmlns="http://www.w3.org/2000/svg">
<rect x="0.5" y="0.5" width="47" height="47" rx="23.5" fill="white"/>
<rect x="0.5" y="0.5" width="47" height="47" rx="23.5" stroke="white"/>
<g clip-path="url(#clip0_2284_229)">
<path d="M16.125 23.75C16.125 19.4258 19.6406 15.875 23.9648 15.875C24.3867 15.875 25.0195 15.9453 25.4062 16.0156C25.7578 16.0859 25.8281 16.543 25.5117 16.7188C23.6133 17.8086 22.418 19.8477 22.418 22.0625C22.418 25.9297 25.8984 28.8477 29.7305 28.1445C30.082 28.0742 30.293 28.4609 30.082 28.7422C28.6055 30.5352 26.3906 31.625 23.9648 31.625C19.6406 31.625 16.125 28.1094 16.125 23.75Z" fill="#020A09"/>
</g>
<defs>
<clipPath id="clip0_2284_229">
<rect x="7" y="3.5" width="34" height="41" rx="17" fill="white"/>
</clipPath>
</defs>
</svg>
